<svg width="28" height="28" viewBox="0 0 28 28" fill="none" xmlns="http://www.w3.org/2000/svg">
<path d="M13.826 4L13.9133 4.01741M13.9133 4.01741L4 14.6345H5.93455V24.1972C11.1675 24.2521 21.6335 24.3291 21.6335 24.1972C21.6335 24.0653 21.6335 17.9429 21.6335 14.8983H24.2699L20.709 11.4689V6.48966H17.85V7.80865C16.5324 6.48474 13.9004 3.87302 13.9133 4.01741Z" stroke="black" stroke-width="1.63285"/>
<path d="M16.7722 18.6388V17.7965C16.7722 17.1017 16.2037 16.5332 15.5089 16.5332H12.14C11.4451 16.5332 10.8766 17.1017 10.8766 17.7965V18.6388C10.1818 18.6388 9.61328 19.2073 9.61328 19.9021V22.0077C9.61328 22.7025 10.1818 23.271 10.8766 23.271V24.1133H11.7189V23.271H15.93V24.1133H16.7722V23.271C17.4671 23.271 18.0356 22.7025 18.0356 22.0077V19.9021C18.0356 19.2073 17.4671 18.6388 16.7722 18.6388ZM11.7189 17.7965C11.7189 17.5649 11.9084 17.3754 12.14 17.3754H15.5089C15.7405 17.3754 15.93 17.5649 15.93 17.7965V18.9672C15.6731 19.1989 15.5089 19.5315 15.5089 19.9021V20.7443H12.14V19.9021C12.14 19.5315 11.9757 19.1989 11.7189 18.9672V17.7965ZM17.1933 22.0077C17.1933 22.2393 17.0038 22.4288 16.7722 22.4288H10.8766C10.645 22.4288 10.4555 22.2393 10.4555 22.0077V19.9021C10.4555 19.6705 10.645 19.481 10.8766 19.481C11.1082 19.481 11.2977 19.6705 11.2977 19.9021V21.5866H16.3511V19.9021C16.3511 19.6705 16.5406 19.481 16.7722 19.481C17.0038 19.481 17.1933 19.6705 17.1933 19.9021V22.0077Z" fill="black"/>
<path fill-rule="evenodd" clip-rule="evenodd" d="M14.7365 13.2991C14.6739 13.3454 14.6059 13.3837 14.5311 13.4035C14.3207 13.4599 14.0908 13.3758 13.8899 13.3194C12.5434 12.9405 11.6414 12.3472 11.3827 11.462C11.1762 10.755 11.3748 10.0469 11.8116 9.60679C12.2161 9.19914 12.8159 9.03382 13.4312 9.29873C13.8318 8.76158 14.4341 8.60473 14.9882 8.75566C15.5862 8.91844 16.1121 9.43245 16.2867 10.1479C16.321 10.2882 16.3382 10.431 16.3384 10.5764C16.4106 10.6135 16.4783 10.6586 16.5415 10.7118C16.8679 10.988 17.0422 11.4572 16.9449 11.945C16.8208 12.5673 16.2438 13.0043 15.4187 13.3163C15.2773 13.3699 15.1227 13.4362 14.9684 13.4091C14.8826 13.3939 14.8059 13.3499 14.7365 13.2991ZM11.9244 11.3037C11.7735 10.7866 11.9252 10.2935 12.2122 10.0043C12.4875 9.72669 12.8957 9.62344 13.3471 9.8875C13.5048 9.97975 13.7082 9.92502 13.7985 9.76675C14.0575 9.31227 14.4626 9.19745 14.8398 9.30014C15.233 9.40734 15.6111 9.75829 15.7386 10.2816C15.7542 10.3444 15.7645 10.4088 15.7696 10.4749C15.6663 10.4881 15.5655 10.5167 15.4706 10.5598C15.1676 10.2644 14.7664 10.2063 14.4126 10.3366C14.0115 10.4842 13.687 10.8656 13.6114 11.3573C13.5344 11.8609 13.7722 12.3518 14.2149 12.8237C14.159 12.8096 14.1012 12.7927 14.0428 12.7763C12.7363 12.4088 12.0962 11.8919 11.9244 11.3037ZM14.1695 11.4428C14.2146 11.1466 14.4062 10.9403 14.6076 10.8659C14.7938 10.7976 15.0006 10.8334 15.1577 11.0605C15.1811 11.0944 15.211 11.1232 15.2457 11.1454C15.2803 11.1676 15.3191 11.1828 15.3596 11.1899C15.4001 11.1971 15.4417 11.1962 15.4818 11.1872C15.522 11.1782 15.56 11.1613 15.5936 11.1375C15.8193 10.9776 16.0258 11.0148 16.177 11.1426C16.3412 11.2814 16.4501 11.541 16.3914 11.8346C16.3279 12.1534 16.0055 12.4914 15.2192 12.7885C15.1693 12.8074 15.1196 12.8277 15.0683 12.8426C15.0251 12.8108 14.9853 12.7749 14.9447 12.7402C14.3077 12.1921 14.1201 11.7644 14.1695 11.4428Z" fill="black"/>
</svg>
