<svg width="32" height="32" viewBox="0 0 32 32" fill="none" xmlns="http://www.w3.org/2000/svg">
<path d="M7.9987 25.3327H11.9987V18.666C11.9987 18.2882 12.1267 17.9718 12.3827 17.7167C12.6387 17.4616 12.9551 17.3336 13.332 17.3327H18.6654C19.0431 17.3327 19.36 17.4607 19.616 17.7167C19.872 17.9727 19.9996 18.2891 19.9987 18.666V25.3327H23.9987V13.3327L15.9987 7.33268L7.9987 13.3327V25.3327ZM5.33203 25.3327V13.3327C5.33203 12.9105 5.4267 12.5105 5.61603 12.1327C5.80536 11.7549 6.06625 11.4438 6.3987 11.1994L14.3987 5.19935C14.8654 4.84379 15.3987 4.66602 15.9987 4.66602C16.5987 4.66602 17.132 4.84379 17.5987 5.19935L25.5987 11.1994C25.932 11.4438 26.1934 11.7549 26.3827 12.1327C26.572 12.5105 26.6663 12.9105 26.6654 13.3327V25.3327C26.6654 26.066 26.404 26.694 25.8814 27.2167C25.3587 27.7394 24.7311 28.0002 23.9987 27.9994H18.6654C18.2876 27.9994 17.9711 27.8714 17.716 27.6154C17.4609 27.3594 17.3329 27.0429 17.332 26.666V19.9994H14.6654V26.666C14.6654 27.0438 14.5374 27.3607 14.2814 27.6167C14.0254 27.8727 13.7089 28.0002 13.332 27.9994H7.9987C7.26536 27.9994 6.63781 27.7385 6.11603 27.2167C5.59425 26.6949 5.33292 26.0669 5.33203 25.3327Z" fill="black"/>
</svg>
