<svg width="28" height="28" viewBox="0 0 28 28" fill="none" xmlns="http://www.w3.org/2000/svg">
<rect x="9.48438" y="4.71289" width="2.23529" height="2.46454" rx="1.11765" stroke="black"/>
<rect x="21.1328" y="4.36719" width="2.23529" height="2.46454" rx="1.11765" stroke="black"/>
<path d="M9.95634 4.55905L9.68348 3.39027C9.65616 3.27322 9.73431 3.1577 9.85312 3.13952L9.97642 3.12066C10.4987 3.04077 11.0305 3.04736 11.5507 3.14019V3.14019C11.6513 3.15815 11.7162 3.2568 11.693 3.35631L11.4122 4.55905" stroke="black"/>
<path d="M9.95611 7.33008L9.62142 7.46793C8.53561 7.91514 7.79074 8.93162 7.69141 10.1017V10.1017V12.7001M11.2502 7.33008L12.7061 8.02299V8.02299C13.2881 8.23075 13.6767 8.78201 13.6767 9.40001V10.1017V12.7001" stroke="black" stroke-linecap="round"/>
<path d="M3 25.0005V13.8745C3 13.3223 3.44772 12.8746 4 12.8746H18.7841C19.6846 12.8746 20.4741 12.2727 20.7127 11.4042L21.1177 9.92969" stroke="black" stroke-linecap="round"/>
<path d="M9.64844 10.2754C9.64844 9.99925 9.42458 9.77539 9.14844 9.77539C8.8723 9.77539 8.64844 9.99925 8.64844 10.2754H9.14844H9.64844ZM12.722 10.2754C12.722 9.99925 12.4981 9.77539 12.222 9.77539C11.9458 9.77539 11.722 9.99925 11.722 10.2754H12.222H12.722ZM9.14844 10.2754H8.64844V12.7006H9.14844H9.64844V10.2754H9.14844ZM12.222 10.2754H11.722V12.7006H12.222H12.722V10.2754H12.222Z" fill="black"/>
<path d="M21.4402 6.98438L21.2689 7.06591C20.4559 7.45284 19.8597 8.18446 19.6449 9.05882L19.1755 10.9686H16.5873L16.3743 11.1112C15.8267 11.4776 15.7722 12.2622 16.2638 12.7009V12.7009M23.0579 6.98438L23.9938 7.48548C24.432 7.72014 24.7655 8.11166 24.9274 8.58167V8.58167C24.9748 8.7194 24.9991 8.86405 24.9991 9.00972L24.9991 9.0631L24.0285 25M22.4108 16.5119V25M20.6314 25L20.1461 14.4331M16.102 18.2441H15.9972C15.5014 18.2441 15.037 18.4871 14.7543 18.8945V18.8945C14.5786 19.1478 14.4844 19.4487 14.4844 19.757V23.7929C14.4844 24.1214 14.6183 24.4358 14.8552 24.6634V24.6634C15.08 24.8794 15.3797 25 15.6915 25H17.4069C17.7131 25 18.0093 24.8905 18.2418 24.6913V24.6913C18.5264 24.4474 18.6903 24.0914 18.6903 23.7166V19.58C18.6903 19.3847 18.6474 19.1918 18.5648 19.0148V19.0148C18.3453 18.5447 17.8733 18.2441 17.3544 18.2441H17.2344M16.102 18.2441H17.2344M16.102 18.2441V15.819M17.2344 18.2441V15.819M15.455 15.819H17.2344M17.8814 15.819H17.2344" stroke="black" stroke-linecap="round"/>
</svg>
