<svg width="28" height="28" viewBox="0 0 28 28" fill="none" xmlns="http://www.w3.org/2000/svg">
<g clip-path="url(#clip0_5923_17044)">
<path d="M24.5013 10.4993V7.46602C24.5013 5.92018 23.4746 4.66602 22.21 4.66602H3.4593C2.19347 4.66602 1.16797 5.92018 1.16797 7.46602V20.5327C1.16797 22.0785 2.19464 23.3327 3.4593 23.3327H22.21C23.4758 23.3327 24.5013 22.0785 24.5013 20.5327V17.4993M23.3346 13.9993H23.3463M19.368 10.4993H24.968C25.463 10.4993 25.9378 10.696 26.2879 11.0461C26.638 11.3962 26.8346 11.8709 26.8346 12.366V15.6327C26.8346 16.1278 26.638 16.6025 26.2879 16.9526C25.9378 17.3027 25.463 17.4993 24.968 17.4993H19.368C18.8729 17.4993 18.3981 17.3027 18.048 16.9526C17.698 16.6025 17.5013 16.1278 17.5013 15.6327V12.366C17.5013 11.8709 17.698 11.3962 18.048 11.0461C18.3981 10.696 18.8729 10.4993 19.368 10.4993Z" stroke="#E4E4E4" stroke-width="2.5" stroke-linecap="round" stroke-linejoin="round"/>
</g>
<defs>
<clipPath id="clip0_5923_17044">
<rect width="28" height="28" fill="white"/>
</clipPath>
</defs>
</svg>
